<mxfile host="65bd71144e">
    <diagram id="WRcYQVKoDBkuWaGTgO9w" name="Page-1">
        <mxGraphModel dx="1319" dy="1627" grid="1" gridSize="10" guides="1" tooltips="1" connect="1" arrows="1" fold="1" page="1" pageScale="1" pageWidth="850" pageHeight="1100" math="0" shadow="0">
            <root>
                <mxCell id="0"/>
                <mxCell id="1" parent="0"/>
                <mxCell id="4" value="" style="edgeStyle=none;html=1;entryX=0.5;entryY=0;entryDx=0;entryDy=0;" parent="1" source="2" target="28" edge="1">
                    <mxGeometry relative="1" as="geometry">
                        <mxPoint x="430" y="210" as="targetPoint"/>
                    </mxGeometry>
                </mxCell>
                <mxCell id="10" value="" style="edgeStyle=none;html=1;" parent="1" source="2" edge="1">
                    <mxGeometry relative="1" as="geometry">
                        <mxPoint x="330" y="80" as="targetPoint"/>
                    </mxGeometry>
                </mxCell>
                <mxCell id="16" value="" style="edgeStyle=none;html=1;" parent="1" source="2" target="15" edge="1">
                    <mxGeometry relative="1" as="geometry"/>
                </mxCell>
                <mxCell id="2" value="" style="ellipse;whiteSpace=wrap;html=1;aspect=fixed;" parent="1" vertex="1">
                    <mxGeometry x="390" y="40" width="80" height="80" as="geometry"/>
                </mxCell>
                <mxCell id="14" value="" style="edgeStyle=none;html=1;" parent="1" target="13" edge="1">
                    <mxGeometry relative="1" as="geometry">
                        <mxPoint x="270" y="250" as="sourcePoint"/>
                    </mxGeometry>
                </mxCell>
                <mxCell id="13" value="" style="whiteSpace=wrap;html=1;" parent="1" vertex="1">
                    <mxGeometry x="210" y="330" width="120" height="60" as="geometry"/>
                </mxCell>
                <mxCell id="15" value="" style="whiteSpace=wrap;html=1;" parent="1" vertex="1">
                    <mxGeometry x="530" y="50" width="120" height="60" as="geometry"/>
                </mxCell>
                <mxCell id="33" style="edgeStyle=none;html=1;entryX=0.5;entryY=0;entryDx=0;entryDy=0;" edge="1" parent="1" source="17" target="32">
                    <mxGeometry relative="1" as="geometry"/>
                </mxCell>
                <object label="" in-loop="3" id="17">
                    <mxCell style="shape=loopLimit;whiteSpace=wrap;html=1;" parent="1" vertex="1">
                        <mxGeometry x="380" y="330" width="100" height="80" as="geometry"/>
                    </mxCell>
                </object>
                <mxCell id="23" style="edgeStyle=none;html=1;entryX=0.5;entryY=1;entryDx=0;entryDy=0;" parent="1" source="20" target="22" edge="1">
                    <mxGeometry relative="1" as="geometry"/>
                </mxCell>
                <mxCell id="20" value="" style="whiteSpace=wrap;html=1;" parent="1" vertex="1">
                    <mxGeometry x="370" y="590" width="120" height="60" as="geometry"/>
                </mxCell>
                <mxCell id="25" value="" style="edgeStyle=none;html=1;" parent="1" source="22" target="24" edge="1">
                    <mxGeometry relative="1" as="geometry"/>
                </mxCell>
                <object label="" out-loop="1" id="22">
                    <mxCell style="shape=loopLimit;whiteSpace=wrap;html=1;rotation=-180;" parent="1" vertex="1">
                        <mxGeometry x="380" y="710" width="100" height="80" as="geometry"/>
                    </mxCell>
                </object>
                <mxCell id="27" value="" style="edgeStyle=none;html=1;entryX=0.5;entryY=1;entryDx=0;entryDy=0;" parent="1" source="24" target="30" edge="1">
                    <mxGeometry relative="1" as="geometry"/>
                </mxCell>
                <mxCell id="24" value="" style="whiteSpace=wrap;html=1;" parent="1" vertex="1">
                    <mxGeometry x="370" y="880" width="120" height="60" as="geometry"/>
                </mxCell>
                <mxCell id="26" value="" style="ellipse;whiteSpace=wrap;html=1;" parent="1" vertex="1">
                    <mxGeometry x="390" y="1280" width="80" height="80" as="geometry"/>
                </mxCell>
                <mxCell id="29" style="edgeStyle=none;html=1;entryX=0.5;entryY=0;entryDx=0;entryDy=0;" parent="1" source="28" target="17" edge="1">
                    <mxGeometry relative="1" as="geometry"/>
                </mxCell>
                <object label="" in-loop="4" id="28">
                    <mxCell style="shape=loopLimit;whiteSpace=wrap;html=1;" parent="1" vertex="1">
                        <mxGeometry x="380" y="190" width="100" height="80" as="geometry"/>
                    </mxCell>
                </object>
                <mxCell id="37" style="edgeStyle=none;html=1;entryX=0.5;entryY=1;entryDx=0;entryDy=0;" edge="1" parent="1" source="30" target="36">
                    <mxGeometry relative="1" as="geometry"/>
                </mxCell>
                <object label="" out-loop="3" id="30">
                    <mxCell style="shape=loopLimit;whiteSpace=wrap;html=1;rotation=-180;" parent="1" vertex="1">
                        <mxGeometry x="380" y="1000" width="100" height="80" as="geometry"/>
                    </mxCell>
                </object>
                <mxCell id="34" style="edgeStyle=none;html=1;entryX=0.5;entryY=0;entryDx=0;entryDy=0;" edge="1" parent="1" source="32" target="20">
                    <mxGeometry relative="1" as="geometry"/>
                </mxCell>
                <object label="" in-loop="1" id="32">
                    <mxCell style="shape=loopLimit;whiteSpace=wrap;html=1;" vertex="1" parent="1">
                        <mxGeometry x="380" y="440" width="100" height="80" as="geometry"/>
                    </mxCell>
                </object>
                <mxCell id="38" style="edgeStyle=none;html=1;entryX=0.5;entryY=0;entryDx=0;entryDy=0;" edge="1" parent="1" source="36" target="26">
                    <mxGeometry relative="1" as="geometry"/>
                </mxCell>
                <object label="" out-loop="4" id="36">
                    <mxCell style="shape=loopLimit;whiteSpace=wrap;html=1;rotation=-180;" vertex="1" parent="1">
                        <mxGeometry x="380" y="1140" width="100" height="80" as="geometry"/>
                    </mxCell>
                </object>
            </root>
        </mxGraphModel>
    </diagram>
</mxfile>
